<?xml version="1.0" encoding="UTF-8" standalone="no"?>
<!DOCTYPE svg PUBLIC "-//W3C//DTD SVG 1.1//EN"
 "http://www.w3.org/Graphics/SVG/1.1/DTD/svg11.dtd">
<!-- Generated by graphviz version 2.38.0 (20140413.2041)
 -->
<!-- Title: G Pages: 1 -->
<svg width="579pt" height="1377pt"
 viewBox="0.00 0.00 578.62 1376.87" xmlns="http://www.w3.org/2000/svg" xmlns:xlink="http://www.w3.org/1999/xlink">
<g id="graph0" class="graph" transform="scale(1 1) rotate(0) translate(4 1372.87)">
<title>G</title>
<polygon fill="white" stroke="none" points="-4,4 -4,-1372.87 574.623,-1372.87 574.623,4 -4,4"/>
<text text-anchor="middle" x="285.311" y="-1353.67" font-family="Times,serif" font-size="14.00">Variational Autoencoder</text>
<!-- n1 -->
<g id="node1" class="node"><title>n1</title>
<g id="a_node1"><a xlink:title="[nngraphva.lua]:43">
<ellipse fill="none" stroke="black" cx="301.705" cy="-112.368" rx="97.4405" ry="25.4118"/>
<text text-anchor="middle" x="301.705" y="-115.168" font-family="Times,serif" font-size="14.00">Node1</text>
<text text-anchor="middle" x="301.705" y="-101.168" font-family="Times,serif" font-size="14.00">module = nn.Sigmoid</text>
</a>
</g>
</g>
<!-- n2 -->
<g id="node2" class="node"><title>n2</title>
<g id="a_node2"><a xlink:title="[[C]]:&#45;1">
<ellipse fill="none" stroke="black" cx="301.705" cy="-25.4558" rx="51.8999" ry="25.4118"/>
<text text-anchor="middle" x="301.705" y="-28.2558" font-family="Times,serif" font-size="14.00">Node2</text>
<text text-anchor="middle" x="301.705" y="-14.2558" font-family="Times,serif" font-size="14.00">input = {}</text>
</a>
</g>
</g>
<!-- n1&#45;&gt;n2 -->
<g id="edge1" class="edge"><title>n1&#45;&gt;n2</title>
<path fill="none" stroke="black" d="M301.705,-86.8076C301.705,-78.7986 301.705,-69.7497 301.705,-61.1419"/>
<polygon fill="black" stroke="black" points="305.205,-60.9606 301.705,-50.9606 298.205,-60.9607 305.205,-60.9606"/>
</g>
<!-- n3 -->
<g id="node3" class="node"><title>n3</title>
<g id="a_node3"><a xlink:title="[nngraphva.lua]:42">
<ellipse fill="none" stroke="black" cx="301.705" cy="-199.279" rx="144.634" ry="25.4118"/>
<text text-anchor="middle" x="301.705" y="-202.079" font-family="Times,serif" font-size="14.00">Node3</text>
<text text-anchor="middle" x="301.705" y="-188.079" font-family="Times,serif" font-size="14.00">module = nn.Linear(401 &#45;&gt; 1024)</text>
</a>
</g>
</g>
<!-- n3&#45;&gt;n1 -->
<g id="edge2" class="edge"><title>n3&#45;&gt;n1</title>
<path fill="none" stroke="black" d="M301.705,-173.719C301.705,-165.71 301.705,-156.661 301.705,-148.054"/>
<polygon fill="black" stroke="black" points="305.205,-147.872 301.705,-137.872 298.205,-147.872 305.205,-147.872"/>
</g>
<!-- n4 -->
<g id="node4" class="node"><title>n4</title>
<g id="a_node4"><a xlink:title="[nngraphva.lua]:40">
<ellipse fill="none" stroke="black" cx="301.705" cy="-286.191" rx="83.6272" ry="25.4118"/>
<text text-anchor="middle" x="301.705" y="-288.991" font-family="Times,serif" font-size="14.00">Node4</text>
<text text-anchor="middle" x="301.705" y="-274.991" font-family="Times,serif" font-size="14.00">module = nn.Tanh</text>
</a>
</g>
</g>
<!-- n4&#45;&gt;n3 -->
<g id="edge3" class="edge"><title>n4&#45;&gt;n3</title>
<path fill="none" stroke="black" d="M301.705,-260.631C301.705,-252.622 301.705,-243.573 301.705,-234.965"/>
<polygon fill="black" stroke="black" points="305.205,-234.784 301.705,-224.784 298.205,-234.784 305.205,-234.784"/>
</g>
<!-- n5 -->
<g id="node5" class="node"><title>n5</title>
<g id="a_node5"><a xlink:title="[nngraphva.lua]:39">
<ellipse fill="none" stroke="black" cx="301.705" cy="-373.103" rx="134.834" ry="25.4118"/>
<text text-anchor="middle" x="301.705" y="-375.903" font-family="Times,serif" font-size="14.00">Node5</text>
<text text-anchor="middle" x="301.705" y="-361.903" font-family="Times,serif" font-size="14.00">module = nn.Linear(10 &#45;&gt; 401)</text>
</a>
</g>
</g>
<!-- n5&#45;&gt;n4 -->
<g id="edge4" class="edge"><title>n5&#45;&gt;n4</title>
<path fill="none" stroke="black" d="M301.705,-347.543C301.705,-339.534 301.705,-330.485 301.705,-321.877"/>
<polygon fill="black" stroke="black" points="305.205,-321.696 301.705,-311.696 298.205,-321.696 305.205,-321.696"/>
</g>
<!-- n6 -->
<g id="node6" class="node"><title>n6</title>
<g id="a_node6"><a xlink:title="[nngraphva.lua]:37">
<ellipse fill="none" stroke="black" cx="301.705" cy="-469.914" rx="125.792" ry="35.2113"/>
<text text-anchor="middle" x="301.705" y="-479.714" font-family="Times,serif" font-size="14.00">Node6</text>
<text text-anchor="start" x="220.86" y="-465.714" font-family="Times,serif" font-size="14.00">module = nn.CAddTable</text>
<text text-anchor="middle" x="301.705" y="-451.714" font-family="Times,serif" font-size="14.00">mapindex = {Node7,Node8}</text>
</a>
</g>
</g>
<!-- n6&#45;&gt;n5 -->
<g id="edge5" class="edge"><title>n6&#45;&gt;n5</title>
<path fill="none" stroke="black" d="M301.705,-434.417C301.705,-426.077 301.705,-417.161 301.705,-408.813"/>
<polygon fill="black" stroke="black" points="305.205,-408.627 301.705,-398.627 298.205,-408.627 305.205,-408.627"/>
</g>
<!-- n7 -->
<g id="node7" class="node"><title>n7</title>
<g id="a_node7"><a xlink:title="[nngraphva.lua]:30">
<ellipse fill="none" stroke="black" cx="435.705" cy="-673.436" rx="134.834" ry="25.4118"/>
<text text-anchor="middle" x="435.705" y="-676.236" font-family="Times,serif" font-size="14.00">Node7</text>
<text text-anchor="middle" x="435.705" y="-662.236" font-family="Times,serif" font-size="14.00">module = nn.Linear(400 &#45;&gt; 10)</text>
</a>
</g>
</g>
<!-- n7&#45;&gt;n6 -->
<g id="edge6" class="edge"><title>n7&#45;&gt;n6</title>
<path fill="none" stroke="black" d="M419.542,-648.127C397.316,-614.703 356.985,-554.049 329.774,-513.126"/>
<polygon fill="black" stroke="black" points="332.629,-511.099 324.178,-504.71 326.8,-514.975 332.629,-511.099"/>
</g>
<!-- n8 -->
<g id="node8" class="node"><title>n8</title>
<g id="a_node8"><a xlink:title="[nngraphva.lua]:35">
<ellipse fill="none" stroke="black" cx="202.705" cy="-576.624" rx="135.366" ry="35.2113"/>
<text text-anchor="middle" x="202.705" y="-586.424" font-family="Times,serif" font-size="14.00">Node8</text>
<text text-anchor="start" x="115.116" y="-572.424" font-family="Times,serif" font-size="14.00">module = nn.CMulTable</text>
<text text-anchor="middle" x="202.705" y="-558.424" font-family="Times,serif" font-size="14.00">mapindex = {Node10,Node11}</text>
</a>
</g>
</g>
<!-- n8&#45;&gt;n6 -->
<g id="edge7" class="edge"><title>n8&#45;&gt;n6</title>
<path fill="none" stroke="black" d="M234.302,-542.205C243.411,-532.571 253.454,-521.948 262.945,-511.91"/>
<polygon fill="black" stroke="black" points="265.743,-514.045 270.07,-504.374 260.656,-509.236 265.743,-514.045"/>
</g>
<!-- n9 -->
<g id="node9" class="node"><title>n9</title>
<g id="a_node9"><a xlink:title="[nngraphva.lua]:27">
<ellipse fill="none" stroke="black" cx="352.705" cy="-847.259" rx="83.6272" ry="25.4118"/>
<text text-anchor="middle" x="352.705" y="-850.059" font-family="Times,serif" font-size="14.00">Node9</text>
<text text-anchor="middle" x="352.705" y="-836.059" font-family="Times,serif" font-size="14.00">module = nn.Tanh</text>
</a>
</g>
</g>
<!-- n9&#45;&gt;n7 -->
<g id="edge8" class="edge"><title>n9&#45;&gt;n7</title>
<path fill="none" stroke="black" d="M379.6,-822.942C390.085,-812.544 401.332,-799.544 408.705,-785.803 421.513,-761.936 428.334,-731.956 431.914,-709.115"/>
<polygon fill="black" stroke="black" points="435.385,-709.567 433.341,-699.171 428.456,-708.573 435.385,-709.567"/>
</g>
<!-- n13 -->
<g id="node13" class="node"><title>n13</title>
<g id="a_node13"><a xlink:title="[nngraphva.lua]:29">
<ellipse fill="none" stroke="black" cx="264.705" cy="-760.347" rx="134.834" ry="25.4118"/>
<text text-anchor="middle" x="264.705" y="-763.147" font-family="Times,serif" font-size="14.00">Node13</text>
<text text-anchor="middle" x="264.705" y="-749.147" font-family="Times,serif" font-size="14.00">module = nn.Linear(400 &#45;&gt; 10)</text>
</a>
</g>
</g>
<!-- n9&#45;&gt;n13 -->
<g id="edge15" class="edge"><title>n9&#45;&gt;n13</title>
<path fill="none" stroke="black" d="M328.192,-822.606C318.534,-813.287 307.307,-802.454 297.003,-792.511"/>
<polygon fill="black" stroke="black" points="299.325,-789.888 289.698,-785.463 294.464,-794.925 299.325,-789.888"/>
</g>
<!-- n10 -->
<g id="node10" class="node"><title>n10</title>
<g id="a_node10"><a xlink:title="[nngraphva.lua]:34">
<ellipse fill="none" stroke="black" cx="202.705" cy="-673.436" rx="79.7221" ry="25.4118"/>
<text text-anchor="middle" x="202.705" y="-676.236" font-family="Times,serif" font-size="14.00">Node10</text>
<text text-anchor="middle" x="202.705" y="-662.236" font-family="Times,serif" font-size="14.00">module = nn.Exp</text>
</a>
</g>
</g>
<!-- n10&#45;&gt;n8 -->
<g id="edge9" class="edge"><title>n10&#45;&gt;n8</title>
<path fill="none" stroke="black" d="M202.705,-647.525C202.705,-639.717 202.705,-630.849 202.705,-622.114"/>
<polygon fill="black" stroke="black" points="206.205,-621.992 202.705,-611.992 199.205,-621.992 206.205,-621.992"/>
</g>
<!-- n11 -->
<g id="node11" class="node"><title>n11</title>
<g id="a_node11"><a xlink:title="[nngraphva.lua]:31">
<ellipse fill="none" stroke="black" cx="94.7054" cy="-934.171" rx="94.9112" ry="25.4118"/>
<text text-anchor="middle" x="94.7054" y="-936.971" font-family="Times,serif" font-size="14.00">Node11</text>
<text text-anchor="middle" x="94.7054" y="-922.971" font-family="Times,serif" font-size="14.00">module = nn.Identity</text>
</a>
</g>
</g>
<!-- n11&#45;&gt;n8 -->
<g id="edge10" class="edge"><title>n11&#45;&gt;n8</title>
<path fill="none" stroke="black" d="M90.0167,-908.495C81.479,-856.743 68.2004,-734.498 113.705,-647.98 120.124,-635.776 129.688,-624.985 140.197,-615.748"/>
<polygon fill="black" stroke="black" points="142.516,-618.372 147.984,-609.298 138.05,-612.981 142.516,-618.372"/>
</g>
<!-- n12 -->
<g id="node12" class="node"><title>n12</title>
<g id="a_node12"><a xlink:title="[nngraphva.lua]:26">
<ellipse fill="none" stroke="black" cx="352.705" cy="-934.171" rx="144.634" ry="25.4118"/>
<text text-anchor="middle" x="352.705" y="-936.971" font-family="Times,serif" font-size="14.00">Node12</text>
<text text-anchor="middle" x="352.705" y="-922.971" font-family="Times,serif" font-size="14.00">module = nn.Linear(1024 &#45;&gt; 400)</text>
</a>
</g>
</g>
<!-- n12&#45;&gt;n9 -->
<g id="edge11" class="edge"><title>n12&#45;&gt;n9</title>
<path fill="none" stroke="black" d="M352.705,-908.611C352.705,-900.602 352.705,-891.553 352.705,-882.945"/>
<polygon fill="black" stroke="black" points="356.205,-882.764 352.705,-872.764 349.205,-882.764 356.205,-882.764"/>
</g>
<!-- n13&#45;&gt;n10 -->
<g id="edge12" class="edge"><title>n13&#45;&gt;n10</title>
<path fill="none" stroke="black" d="M246.772,-734.787C240.365,-726.012 233.046,-715.989 226.238,-706.665"/>
<polygon fill="black" stroke="black" points="228.894,-704.367 220.17,-698.355 223.241,-708.495 228.894,-704.367"/>
</g>
<!-- n14 -->
<g id="node14" class="node"><title>n14</title>
<g id="a_node14"><a xlink:title="[[C]]:&#45;1&#45;2">
<ellipse fill="none" stroke="black" cx="112.705" cy="-1030.98" rx="71.1496" ry="35.2113"/>
<text text-anchor="middle" x="112.705" y="-1040.78" font-family="Times,serif" font-size="14.00">Node14</text>
<text text-anchor="start" x="70.2713" y="-1026.78" font-family="Times,serif" font-size="14.00">input = {}</text>
<text text-anchor="middle" x="112.705" y="-1012.78" font-family="Times,serif" font-size="14.00">selectindex = 2</text>
</a>
</g>
</g>
<!-- n14&#45;&gt;n11 -->
<g id="edge13" class="edge"><title>n14&#45;&gt;n11</title>
<path fill="none" stroke="black" d="M106.207,-995.753C104.603,-987.306 102.885,-978.253 101.277,-969.787"/>
<polygon fill="black" stroke="black" points="104.692,-969.005 99.3877,-959.834 97.8143,-970.311 104.692,-969.005"/>
</g>
<!-- n15 -->
<g id="node15" class="node"><title>n15</title>
<g id="a_node15"><a xlink:title="[nngraphva.lua]:25">
<ellipse fill="none" stroke="black" cx="333.705" cy="-1030.98" rx="94.9112" ry="25.4118"/>
<text text-anchor="middle" x="333.705" y="-1033.78" font-family="Times,serif" font-size="14.00">Node15</text>
<text text-anchor="middle" x="333.705" y="-1019.78" font-family="Times,serif" font-size="14.00">module = nn.Identity</text>
</a>
</g>
</g>
<!-- n15&#45;&gt;n12 -->
<g id="edge14" class="edge"><title>n15&#45;&gt;n12</title>
<path fill="none" stroke="black" d="M338.697,-1005.07C340.857,-994.293 343.422,-981.495 345.763,-969.814"/>
<polygon fill="black" stroke="black" points="349.213,-970.408 347.747,-959.915 342.35,-969.032 349.213,-970.408"/>
</g>
<!-- n16 -->
<g id="node16" class="node"><title>n16</title>
<g id="a_node16"><a xlink:title="[[C]]:&#45;1&#45;mnode">
<ellipse fill="none" stroke="black" cx="182.705" cy="-1234.5" rx="81.6087" ry="25.4118"/>
<text text-anchor="middle" x="182.705" y="-1237.3" font-family="Times,serif" font-size="14.00">Node16</text>
<text text-anchor="middle" x="182.705" y="-1223.3" font-family="Times,serif" font-size="14.00">nSplitOutputs = 2</text>
</a>
</g>
</g>
<!-- n16&#45;&gt;n14 -->
<g id="edge16" class="edge"><title>n16&#45;&gt;n14</title>
<path fill="none" stroke="black" d="M174.122,-1208.79C162.621,-1175.68 142.022,-1116.38 127.875,-1075.65"/>
<polygon fill="black" stroke="black" points="131.103,-1074.28 124.516,-1065.98 124.491,-1076.58 131.103,-1074.28"/>
</g>
<!-- n17 -->
<g id="node17" class="node"><title>n17</title>
<g id="a_node17"><a xlink:title="[[C]]:&#45;1&#45;1">
<ellipse fill="none" stroke="black" cx="274.705" cy="-1137.69" rx="71.1496" ry="35.2113"/>
<text text-anchor="middle" x="274.705" y="-1147.49" font-family="Times,serif" font-size="14.00">Node17</text>
<text text-anchor="start" x="232.271" y="-1133.49" font-family="Times,serif" font-size="14.00">input = {}</text>
<text text-anchor="middle" x="274.705" y="-1119.49" font-family="Times,serif" font-size="14.00">selectindex = 1</text>
</a>
</g>
</g>
<!-- n16&#45;&gt;n17 -->
<g id="edge19" class="edge"><title>n16&#45;&gt;n17</title>
<path fill="none" stroke="black" d="M205.921,-1209.58C215.436,-1199.77 226.691,-1188.17 237.311,-1177.23"/>
<polygon fill="black" stroke="black" points="240.081,-1179.4 244.533,-1169.79 235.058,-1174.53 240.081,-1179.4"/>
</g>
<!-- n17&#45;&gt;n15 -->
<g id="edge17" class="edge"><title>n17&#45;&gt;n15</title>
<path fill="none" stroke="black" d="M293.373,-1103.56C300.26,-1091.34 308.062,-1077.49 314.956,-1065.26"/>
<polygon fill="black" stroke="black" points="318.162,-1066.7 320.021,-1056.27 312.063,-1063.26 318.162,-1066.7"/>
</g>
<!-- n18 -->
<g id="node18" class="node"><title>n18</title>
<g id="a_node18"><a xlink:title="[[C]]:&#45;1">
<ellipse fill="none" stroke="black" cx="182.705" cy="-1321.42" rx="51.8999" ry="25.4118"/>
<text text-anchor="middle" x="182.705" y="-1324.22" font-family="Times,serif" font-size="14.00">Node18</text>
<text text-anchor="middle" x="182.705" y="-1310.22" font-family="Times,serif" font-size="14.00">input = {}</text>
</a>
</g>
</g>
<!-- n18&#45;&gt;n16 -->
<g id="edge18" class="edge"><title>n18&#45;&gt;n16</title>
<path fill="none" stroke="black" d="M182.705,-1295.86C182.705,-1287.85 182.705,-1278.8 182.705,-1270.19"/>
<polygon fill="black" stroke="black" points="186.205,-1270.01 182.705,-1260.01 179.205,-1270.01 186.205,-1270.01"/>
</g>
</g>
</svg>
